<mxfile host="app.diagrams.net" modified="2020-03-15T09:03:06.335Z" agent="Mozilla/5.0 (X11; Linux x86_64) AppleWebKit/537.36 (KHTML, like Gecko) Chrome/74.0.3729.169 Safari/537.36" etag="D5UwPMo0xv4duNv8hbXq" version="12.8.5" type="github">
  <diagram id="237JdWOQ8wFD-5LmpeCp" name="Page-1">
    <mxGraphModel dx="868" dy="390" grid="1" gridSize="10" guides="1" tooltips="1" connect="1" arrows="1" fold="1" page="1" pageScale="1" pageWidth="850" pageHeight="1100" math="0" shadow="0">
      <root>
        <mxCell id="0" />
        <mxCell id="1" parent="0" />
        <mxCell id="aQaRg4ST8kUPh2lTjFK--1" value="" style="whiteSpace=wrap;html=1;rounded=0;shadow=0;labelBackgroundColor=none;strokeColor=#000000;strokeWidth=1;fillColor=none;fontFamily=Verdana;fontSize=12;fontColor=#000000;align=center;comic=0;" parent="1" vertex="1">
          <mxGeometry x="100" y="50" width="460" height="850" as="geometry" />
        </mxCell>
        <mxCell id="aQaRg4ST8kUPh2lTjFK--2" value="Outlet" style="text;html=1;points=[];align=left;verticalAlign=top;spacingTop=-4;fontSize=20;fontFamily=Verdana" parent="1" vertex="1">
          <mxGeometry x="120" y="90" width="420" height="20" as="geometry" />
        </mxCell>
        <mxCell id="aQaRg4ST8kUPh2lTjFK--3" value="" style="shape=partialRectangle;right=0;left=0;strokeColor=#000000;fillColor=#ffffff;whiteSpace=wrap;" parent="1" vertex="1">
          <mxGeometry x="110" y="490" width="440" height="170" as="geometry" />
        </mxCell>
        <mxCell id="aQaRg4ST8kUPh2lTjFK--4" value="" style="html=1;shadow=0;dashed=0;shape=mxgraph.bootstrap.horLines;strokeColor=inherit;fillColor=#000000;fillOpacity=3;resizeWidth=1;" parent="aQaRg4ST8kUPh2lTjFK--3" vertex="1">
          <mxGeometry width="440" height="40" relative="1" as="geometry" />
        </mxCell>
        <mxCell id="aQaRg4ST8kUPh2lTjFK--5" value="id" style="html=1;shadow=0;dashed=0;shape=mxgraph.bootstrap.rect;strokeColor=none;fillColor=none;fontSize=14;fontStyle=1;align=center;whiteSpace=wrap;resizeHeight=1;" parent="aQaRg4ST8kUPh2lTjFK--4" vertex="1">
          <mxGeometry width="50" height="40" relative="1" as="geometry">
            <mxPoint x="10" as="offset" />
          </mxGeometry>
        </mxCell>
        <mxCell id="aQaRg4ST8kUPh2lTjFK--6" value="nama outlet" style="html=1;shadow=0;dashed=0;shape=mxgraph.bootstrap.rect;strokeColor=none;fillColor=none;fontSize=14;fontStyle=1;align=center;whiteSpace=wrap;resizeHeight=1;" parent="aQaRg4ST8kUPh2lTjFK--4" vertex="1">
          <mxGeometry width="170" height="40" relative="1" as="geometry">
            <mxPoint x="80" as="offset" />
          </mxGeometry>
        </mxCell>
        <mxCell id="aQaRg4ST8kUPh2lTjFK--7" value="kota" style="html=1;shadow=0;dashed=0;shape=mxgraph.bootstrap.rect;strokeColor=none;fillColor=none;fontSize=14;fontStyle=1;align=center;whiteSpace=wrap;resizeHeight=1;" parent="aQaRg4ST8kUPh2lTjFK--4" vertex="1">
          <mxGeometry width="70" height="40" relative="1" as="geometry">
            <mxPoint x="245" as="offset" />
          </mxGeometry>
        </mxCell>
        <mxCell id="aQaRg4ST8kUPh2lTjFK--8" value="alamat" style="html=1;shadow=0;dashed=0;shape=mxgraph.bootstrap.rect;strokeColor=none;fillColor=none;fontSize=14;fontStyle=1;align=center;whiteSpace=wrap;resizeHeight=1;" parent="aQaRg4ST8kUPh2lTjFK--4" vertex="1">
          <mxGeometry width="130" height="40" relative="1" as="geometry">
            <mxPoint x="310" as="offset" />
          </mxGeometry>
        </mxCell>
        <mxCell id="aQaRg4ST8kUPh2lTjFK--10" value="" style="strokeColor=#000000;fillColor=inherit;gradientColor=inherit;html=1;shadow=0;dashed=0;shape=mxgraph.bootstrap.horLines;resizeWidth=1;" parent="aQaRg4ST8kUPh2lTjFK--3" vertex="1">
          <mxGeometry width="440" height="50" relative="1" as="geometry">
            <mxPoint y="120" as="offset" />
          </mxGeometry>
        </mxCell>
        <mxCell id="aQaRg4ST8kUPh2lTjFK--11" value="" style="strokeColor=#000000;fillColor=inherit;gradientColor=inherit;html=1;shadow=0;dashed=0;shape=mxgraph.bootstrap.horLines;resizeWidth=1;" parent="aQaRg4ST8kUPh2lTjFK--3" vertex="1">
          <mxGeometry y="35.79" width="440" height="34.21" as="geometry">
            <mxPoint y="140" as="offset" />
          </mxGeometry>
        </mxCell>
        <mxCell id="aQaRg4ST8kUPh2lTjFK--12" value="" style="group" parent="1" vertex="1" connectable="0">
          <mxGeometry x="120" y="150" width="250" height="33" as="geometry" />
        </mxCell>
        <mxCell id="aQaRg4ST8kUPh2lTjFK--13" value="nama outlet" style="fillColor=none;strokeColor=none;html=1;fontSize=11;fontStyle=0;align=left;fontColor=#596780;fontStyle=1;fontSize=11;comic=0;" parent="aQaRg4ST8kUPh2lTjFK--12" vertex="1">
          <mxGeometry y="6.5" width="70" height="20" as="geometry" />
        </mxCell>
        <mxCell id="aQaRg4ST8kUPh2lTjFK--14" value="" style="rounded=0;arcSize=9;fillColor=#F7F8F9;align=left;spacingLeft=5;strokeColor=#000000;html=1;strokeWidth=1;fontColor=#596780;fontSize=12;comic=0;" parent="aQaRg4ST8kUPh2lTjFK--12" vertex="1">
          <mxGeometry x="80" width="170" height="33" as="geometry" />
        </mxCell>
        <mxCell id="aQaRg4ST8kUPh2lTjFK--19" value="" style="group" parent="1" vertex="1" connectable="0">
          <mxGeometry x="110" y="860" width="132.75" height="20" as="geometry" />
        </mxCell>
        <mxCell id="aQaRg4ST8kUPh2lTjFK--20" value="total :&amp;nbsp;" style="text;html=1;points=[];align=left;verticalAlign=top;spacingTop=-4;fontSize=14;fontFamily=Verdana" parent="aQaRg4ST8kUPh2lTjFK--19" vertex="1">
          <mxGeometry width="50" height="20" as="geometry" />
        </mxCell>
        <mxCell id="aQaRg4ST8kUPh2lTjFK--21" value="0" style="text;html=1;points=[];align=left;verticalAlign=top;spacingTop=-4;fontSize=14;fontFamily=Verdana" parent="aQaRg4ST8kUPh2lTjFK--19" vertex="1">
          <mxGeometry x="52.75" width="40" height="20" as="geometry" />
        </mxCell>
        <mxCell id="aQaRg4ST8kUPh2lTjFK--22" value="data" style="text;html=1;points=[];align=left;verticalAlign=top;spacingTop=-4;fontSize=14;fontFamily=Verdana" parent="aQaRg4ST8kUPh2lTjFK--19" vertex="1">
          <mxGeometry x="92.75" width="40" height="20" as="geometry" />
        </mxCell>
        <mxCell id="aQaRg4ST8kUPh2lTjFK--30" value="" style="group" parent="1" vertex="1" connectable="0">
          <mxGeometry x="120" y="300" width="250" height="33" as="geometry" />
        </mxCell>
        <mxCell id="aQaRg4ST8kUPh2lTjFK--31" value="kota" style="fillColor=none;strokeColor=none;html=1;fontSize=11;fontStyle=0;align=left;fontColor=#596780;fontStyle=1;fontSize=11;comic=0;" parent="aQaRg4ST8kUPh2lTjFK--30" vertex="1">
          <mxGeometry y="6.5" width="70" height="20" as="geometry" />
        </mxCell>
        <mxCell id="aQaRg4ST8kUPh2lTjFK--32" value="" style="group" parent="aQaRg4ST8kUPh2lTjFK--30" vertex="1" connectable="0">
          <mxGeometry x="80" width="170" height="33" as="geometry" />
        </mxCell>
        <mxCell id="aQaRg4ST8kUPh2lTjFK--33" value="pilih kota" style="rounded=0;arcSize=9;fillColor=#F7F8F9;align=left;spacingLeft=5;strokeColor=#000000;html=1;strokeWidth=1;fontColor=#596780;fontSize=12;comic=0;" parent="aQaRg4ST8kUPh2lTjFK--32" vertex="1">
          <mxGeometry width="170" height="33" as="geometry" />
        </mxCell>
        <mxCell id="aQaRg4ST8kUPh2lTjFK--34" value="" style="shape=triangle;direction=south;strokeColor=none;fillColor=#000000;" parent="aQaRg4ST8kUPh2lTjFK--32" vertex="1">
          <mxGeometry x="153" y="10.25" width="10" height="12.5" as="geometry">
            <mxPoint x="-25" y="-2.5" as="offset" />
          </mxGeometry>
        </mxCell>
        <mxCell id="aQaRg4ST8kUPh2lTjFK--35" value="" style="endArrow=none;html=1;entryX=0.859;entryY=0.03;entryDx=0;entryDy=0;entryPerimeter=0;" parent="aQaRg4ST8kUPh2lTjFK--32" target="aQaRg4ST8kUPh2lTjFK--33" edge="1">
          <mxGeometry width="50" height="50" relative="1" as="geometry">
            <mxPoint x="146" y="30" as="sourcePoint" />
            <mxPoint x="120" y="-30" as="targetPoint" />
          </mxGeometry>
        </mxCell>
        <mxCell id="aQaRg4ST8kUPh2lTjFK--36" value="" style="group" parent="1" vertex="1" connectable="0">
          <mxGeometry x="120" y="200" width="250" height="80" as="geometry" />
        </mxCell>
        <mxCell id="aQaRg4ST8kUPh2lTjFK--37" value="alamat" style="fillColor=none;strokeColor=none;html=1;fontSize=11;fontStyle=0;align=left;fontColor=#596780;fontStyle=1;fontSize=11;comic=0;" parent="aQaRg4ST8kUPh2lTjFK--36" vertex="1">
          <mxGeometry y="6.5" width="70" height="20" as="geometry" />
        </mxCell>
        <mxCell id="aQaRg4ST8kUPh2lTjFK--38" value="" style="rounded=0;arcSize=9;fillColor=#F7F8F9;align=left;spacingLeft=5;strokeColor=#000000;html=1;strokeWidth=1;fontColor=#596780;fontSize=12;comic=0;" parent="aQaRg4ST8kUPh2lTjFK--36" vertex="1">
          <mxGeometry x="80" width="170" height="80" as="geometry" />
        </mxCell>
        <mxCell id="aQaRg4ST8kUPh2lTjFK--27" value="tambah" style="rounded=0;html=1;shadow=0;dashed=0;whiteSpace=wrap;fontSize=10;fillColor=#666666;align=center;strokeColor=#4D4D4D;fontColor=#ffffff;comic=0;" parent="1" vertex="1">
          <mxGeometry x="130" y="370" width="105.5" height="30" as="geometry" />
        </mxCell>
        <mxCell id="aQaRg4ST8kUPh2lTjFK--28" value="hapus" style="rounded=0;html=1;shadow=0;dashed=0;whiteSpace=wrap;fontSize=10;fillColor=#666666;align=center;strokeColor=#4D4D4D;fontColor=#ffffff;comic=0;" parent="1" vertex="1">
          <mxGeometry x="280" y="370" width="105.5" height="30" as="geometry" />
        </mxCell>
        <mxCell id="aQaRg4ST8kUPh2lTjFK--29" value="ubah" style="rounded=0;html=1;shadow=0;dashed=0;whiteSpace=wrap;fontSize=10;fillColor=#666666;align=center;strokeColor=#4D4D4D;fontColor=#ffffff;comic=0;" parent="1" vertex="1">
          <mxGeometry x="420" y="370" width="105.5" height="30" as="geometry" />
        </mxCell>
        <mxCell id="aQaRg4ST8kUPh2lTjFK--24" value="" style="rounded=0;arcSize=9;fillColor=#F7F8F9;align=left;spacingLeft=5;strokeColor=#000000;html=1;strokeWidth=1;fontColor=#596780;fontSize=12;comic=0;" parent="1" vertex="1">
          <mxGeometry x="280" y="440" width="163.2" height="30" as="geometry" />
        </mxCell>
        <mxCell id="aQaRg4ST8kUPh2lTjFK--25" value="cari" style="rounded=0;html=1;shadow=0;dashed=0;whiteSpace=wrap;fontSize=10;fillColor=#666666;align=center;strokeColor=#4D4D4D;fontColor=#ffffff;comic=0;" parent="1" vertex="1">
          <mxGeometry x="449.5" y="440" width="80.5" height="30" as="geometry" />
        </mxCell>
      </root>
    </mxGraphModel>
  </diagram>
</mxfile>
